<svg width="36" height="36" viewBox="0 0 36 36" fill="none" xmlns="http://www.w3.org/2000/svg">
<path d="M21.762 9H19.8871C18.4526 9 17.4222 9.3405 16.7961 10.0213C16.1697 10.7022 15.8568 11.7052 15.8568 13.0304V14.2937C15.8568 14.6275 15.5862 14.8981 15.2524 14.8981H14.6044C14.2706 14.8981 14 15.1687 14 15.5025V17.3956C14 17.7294 14.2706 18 14.6044 18H15.2524C15.5862 18 15.8568 18.2706 15.8568 18.6044V26.3955C15.8568 26.7294 16.1274 27 16.4612 27H18.9768C19.3106 27 19.5812 26.7294 19.5812 26.3955V18.6044C19.5812 18.2706 19.8518 18 20.1856 18H21.4561C21.79 18 22.0889 17.7309 22.124 17.399L22.3247 15.4991C22.3597 15.1671 22.1175 14.8981 21.7837 14.8981H20.1854C19.8516 14.8981 19.581 14.6275 19.581 14.2937V13.3472C19.581 13.1143 19.5919 12.934 19.6138 12.8064C19.6356 12.6791 19.6847 12.5536 19.7613 12.4296C19.8376 12.306 19.9616 12.2203 20.1326 12.173C20.3036 12.1256 20.5313 12.1019 20.8152 12.1019H21.7617C22.0956 12.1019 22.3661 11.8313 22.3661 11.4974V9.60442C22.3664 9.27057 22.0958 9 21.762 9Z" fill="#273895"/>
<rect x="0.5" y="0.5" width="35" height="35" rx="9.5" stroke="#CFDAE7"/>
</svg>
