<svg width="36" height="36" viewBox="0 0 36 36" fill="none" xmlns="http://www.w3.org/2000/svg">
<rect x="0.5" y="0.5" width="35" height="35" rx="9.5" stroke="#CFDAE7"/>
<path d="M9.35471 23.696C11.0212 24.7535 12.9607 25.3123 14.9632 25.3123C17.8957 25.3123 20.583 24.1858 22.5307 22.1405C24.3945 20.183 25.4197 17.5528 25.3687 14.8835C26.0752 14.279 26.9062 13.1248 26.9062 11.9998C26.9062 11.5685 26.4382 11.2948 26.0587 11.5145C25.395 11.9045 24.7897 12.0065 24.1672 11.8318C22.896 10.5928 21.0037 10.3318 19.4092 11.1913C18.0157 11.9413 17.241 13.3138 17.3107 14.8138C14.9565 14.5265 12.7815 13.346 11.265 11.5115C11.016 11.2123 10.5435 11.2475 10.3455 11.5865C9.61496 12.8375 9.62246 14.2873 10.2577 15.458C9.95546 15.5113 9.76871 15.7655 9.76871 16.0408C9.76871 17.2175 10.2982 18.299 11.151 19.037C10.992 19.19 10.9395 19.4173 11.007 19.6198C11.382 20.7463 12.231 21.6268 13.2922 22.0678C12.138 22.619 10.8615 22.8028 9.72521 22.6633C9.13721 22.5838 8.84696 23.3743 9.35471 23.696ZM15.117 22.2605C15.5377 21.9373 15.3142 21.2638 14.7862 21.2525C13.8562 21.233 13.0095 20.7748 12.4822 20.054C12.7365 20.0375 12.9997 19.9985 13.2502 19.931C13.821 19.7765 13.794 18.953 13.2142 18.8368C12.162 18.6253 11.3362 17.8588 11.0265 16.8718C11.3092 16.9415 11.5972 16.9805 11.8845 16.9858C12.4537 16.9888 12.669 16.259 12.2047 15.9538C11.1585 15.2645 10.7122 14.0473 11.0077 12.9028C12.8347 14.7538 15.3135 15.869 17.9355 15.995C18.3112 16.0183 18.5932 15.665 18.5107 15.3073C18.1545 13.763 19.017 12.6808 19.9432 12.182C20.8597 11.687 22.3312 11.5325 23.4592 12.716C23.7945 13.0693 24.9255 13.0828 25.5007 12.9485C25.2427 13.4345 24.846 13.8958 24.4747 14.1553C24.3165 14.2663 24.2257 14.4508 24.2355 14.6435C24.3562 17.1073 23.4382 19.5568 21.717 21.3635C19.983 23.1838 17.5852 24.1865 14.964 24.1865C13.9215 24.1865 12.8992 24.017 11.9332 23.69C13.0882 23.4665 14.1855 22.9775 15.117 22.2605Z" fill="#273895"/>
<path d="M15.117 22.2605C15.5377 21.9373 15.3142 21.2638 14.7862 21.2525C13.8562 21.233 13.0095 20.7748 12.4822 20.054C12.7365 20.0375 12.9997 19.9985 13.2502 19.931C13.821 19.7765 13.794 18.953 13.2142 18.8368C12.162 18.6253 11.3362 17.8588 11.0265 16.8718C11.3092 16.9415 11.5972 16.9805 11.8845 16.9858C12.4537 16.9888 12.669 16.259 12.2047 15.9538C11.1585 15.2645 10.7122 14.0473 11.0077 12.9028C12.8347 14.7538 15.3135 15.869 17.9355 15.995C18.3112 16.0183 18.5932 15.665 18.5107 15.3073C18.1545 13.763 19.017 12.6808 19.9432 12.182C20.8597 11.687 22.3312 11.5325 23.4592 12.716C23.7945 13.0693 24.9255 13.0828 25.5007 12.9485C25.2427 13.4345 24.846 13.8958 24.4747 14.1553C24.3165 14.2663 24.2257 14.4508 24.2355 14.6435C24.3562 17.1073 23.4382 19.5568 21.717 21.3635C19.983 23.1838 17.5852 24.1865 14.964 24.1865C13.9215 24.1865 12.8992 24.017 11.9332 23.69C13.0882 23.4665 14.1855 22.9775 15.117 22.2605Z" fill="#273895"/>
</svg>
