<svg width="36" height="36" viewBox="0 0 36 36" fill="none" xmlns="http://www.w3.org/2000/svg">
<rect x="0.5" y="0.5" width="35" height="35" rx="9.5" stroke="#CFDAE7"/>
<g clip-path="url(#clip0_13892_19)">
<path d="M18.1088 23.625C20.7128 23.625 19.7843 21.9765 19.9853 21.5025C19.9823 21.1485 19.9793 20.808 19.9913 20.601C20.1563 20.6475 20.5455 20.8447 21.3495 21.6262C22.5908 22.8787 22.908 23.625 23.9108 23.625H25.7565C26.3415 23.625 26.646 23.3827 26.7983 23.1795C26.9453 22.983 27.0893 22.638 26.9318 22.101C26.52 20.808 24.1185 18.5752 23.9693 18.3397C23.9918 18.2962 24.0278 18.2385 24.0465 18.2085H24.045C24.519 17.5823 26.328 14.8717 26.5943 13.7872C26.595 13.7857 26.5958 13.7835 26.5958 13.7813C26.7398 13.2862 26.6078 12.9653 26.4713 12.7838C26.2658 12.5123 25.9388 12.375 25.497 12.375H23.6513C23.0333 12.375 22.5645 12.6862 22.3275 13.254C21.9308 14.2627 20.8163 16.3372 19.9808 17.0715C19.9553 16.0312 19.9725 15.237 19.986 14.6467C20.013 13.4955 20.1 12.375 18.9053 12.375H16.0043C15.2558 12.375 14.5395 13.1925 15.315 14.163C15.993 15.0135 15.5588 15.4875 15.705 17.847C15.135 17.2357 14.121 15.585 13.404 13.4753C13.203 12.9045 12.8985 12.3757 12.0412 12.3757H10.1955C9.447 12.3757 9 12.7837 9 13.467C9 15.0015 12.3968 23.625 18.1088 23.625ZM12.0412 13.5007C12.204 13.5007 12.2205 13.5008 12.3413 13.8435C13.0755 16.0058 14.7225 19.2053 15.9255 19.2053C16.8293 19.2053 16.8293 18.279 16.8293 17.9302L16.8285 15.1538C16.779 14.235 16.4445 13.7775 16.2248 13.5L18.8558 13.503C18.8573 13.5158 18.8408 16.5742 18.8633 17.3152C18.8633 18.3675 19.6988 18.9705 21.003 17.6505C22.3793 16.0973 23.331 13.7753 23.3693 13.6808C23.4255 13.5458 23.4743 13.5 23.6513 13.5H25.497H25.5045C25.5038 13.5023 25.5038 13.5045 25.503 13.5067C25.3343 14.2942 23.6685 16.8038 23.1113 17.583C23.1023 17.595 23.094 17.6078 23.0858 17.6205C22.8405 18.021 22.641 18.4635 23.1195 19.086H23.1203C23.1638 19.1385 23.277 19.2615 23.442 19.4325C23.4469 19.4376 23.4519 19.4428 23.4571 19.4481C23.9886 19.9966 25.716 21.7794 25.8705 22.4925C25.767 22.509 25.6545 22.497 23.9108 22.5007C23.5395 22.5007 23.2493 21.9458 22.1415 20.8283C21.1455 19.8593 20.499 19.4633 19.9103 19.4633C18.7673 19.4633 18.8505 20.391 18.861 21.513C18.8648 22.7295 18.8573 22.3448 18.8655 22.4213C18.7988 22.4475 18.6075 22.5 18.1088 22.5C13.35 22.5 10.251 14.9468 10.1317 13.503C10.173 13.4993 10.7407 13.5015 12.0412 13.5007Z" fill="#273895"/>
<path d="M12.0412 13.5007C12.204 13.5007 12.2205 13.5008 12.3413 13.8435C13.0755 16.0058 14.7225 19.2053 15.9255 19.2053C16.8293 19.2053 16.8293 18.279 16.8293 17.9302L16.8285 15.1538C16.779 14.235 16.4445 13.7775 16.2248 13.5L18.8558 13.503C18.8573 13.5158 18.8408 16.5742 18.8633 17.3152C18.8633 18.3675 19.6988 18.9705 21.003 17.6505C22.3793 16.0973 23.331 13.7753 23.3693 13.6808C23.4255 13.5458 23.4743 13.5 23.6513 13.5H25.497H25.5045C25.5038 13.5023 25.5038 13.5045 25.503 13.5067C25.3343 14.2942 23.6685 16.8038 23.1113 17.583C23.1023 17.595 23.094 17.6078 23.0858 17.6205C22.8405 18.021 22.641 18.4635 23.1195 19.086H23.1203C23.1638 19.1385 23.277 19.2615 23.442 19.4325L23.4571 19.4481C23.9886 19.9966 25.716 21.7794 25.8705 22.4925C25.767 22.509 25.6545 22.497 23.9108 22.5007C23.5395 22.5007 23.2493 21.9458 22.1415 20.8283C21.1455 19.8593 20.499 19.4633 19.9103 19.4633C18.7673 19.4633 18.8505 20.391 18.861 21.513C18.8648 22.7295 18.8573 22.3448 18.8655 22.4213C18.7988 22.4475 18.6075 22.5 18.1088 22.5C13.35 22.5 10.251 14.9468 10.1317 13.503C10.173 13.4993 10.7407 13.5015 12.0412 13.5007Z" fill="#273895"/>
</g>
<defs>
<clipPath id="clip0_13892_19">
<rect width="18" height="18" fill="white" transform="translate(9 9)"/>
</clipPath>
</defs>
</svg>
