<svg width="46" height="63" viewBox="0 0 46 63" fill="none" xmlns="http://www.w3.org/2000/svg">
<rect x="5" y="5" width="41" height="58" rx="5" fill="url(#paint0_linear_13858_7)"/>
<line x1="1.5" y1="-1.5" x2="29.418" y2="-1.5" transform="matrix(-1 0 0 1 41.9672 17)" stroke="url(#paint1_linear_13858_7)" stroke-width="3" stroke-linecap="round"/>
<line x1="1.5" y1="-1.5" x2="29.418" y2="-1.5" transform="matrix(-1 0 0 1 41.9672 23)" stroke="url(#paint2_linear_13858_7)" stroke-width="3" stroke-linecap="round"/>
<line x1="1.5" y1="-1.5" x2="29.418" y2="-1.5" transform="matrix(-1 0 0 1 41.9672 29)" stroke="url(#paint3_linear_13858_7)" stroke-width="3" stroke-linecap="round"/>
<line x1="1.5" y1="-1.5" x2="29.418" y2="-1.5" transform="matrix(-1 0 0 1 41.9672 35)" stroke="url(#paint4_linear_13858_7)" stroke-width="3" stroke-linecap="round"/>
<line x1="21.6475" y1="51.8333" x2="12.5492" y2="51.8333" stroke="url(#paint5_linear_13858_7)" stroke-width="3" stroke-linecap="round"/>
<rect x="1" y="1" width="41" height="59" rx="5" fill="url(#paint6_linear_13858_7)" fill-opacity="0.5"/>
<g clip-path="url(#clip0_13858_7)">
<path fill-rule="evenodd" clip-rule="evenodd" d="M41.9346 51.5101C41.9054 51.6862 41.8779 51.8525 41.8777 52.0037C41.8774 52.1646 41.9045 52.3371 41.9331 52.5196L41.9333 52.5205C41.9907 52.8859 42.05 53.2637 41.9018 53.6206C41.7536 53.9775 41.444 54.2021 41.1446 54.4193L41.1442 54.4196C40.9945 54.5282 40.8531 54.6308 40.7392 54.7446C40.6322 54.8514 40.5339 54.9883 40.4298 55.1332L40.4297 55.1333C40.2216 55.4228 39.9859 55.751 39.613 55.905C39.442 55.9757 39.2654 56 39.0905 56C38.8843 56 38.6802 55.9662 38.4899 55.9346C38.3138 55.9054 38.1475 55.8779 37.9962 55.8777H37.9943C37.8338 55.8777 37.6617 55.9047 37.4796 55.9333L37.4794 55.9333L37.4793 55.9334C37.114 55.9907 36.7362 56.0501 36.3794 55.9019C36.0225 55.7537 35.7979 55.4441 35.5807 55.1447L35.5807 55.1447C35.472 54.9948 35.3693 54.8533 35.2554 54.7393C35.1486 54.6323 35.0117 54.5339 34.8668 54.4298L34.8666 54.4297L34.8666 54.4297C34.5771 54.2217 34.249 53.9859 34.095 53.6131C33.941 53.2403 34.0071 52.8416 34.0654 52.49C34.0946 52.3138 34.1221 52.1475 34.1223 51.9963C34.1226 51.8353 34.0954 51.6626 34.0667 51.4798L34.0667 51.4795C34.0093 51.1141 33.9499 50.7362 34.0981 50.3794C34.2464 50.0225 34.5559 49.7979 34.8553 49.5807L34.8555 49.5806C35.0053 49.4719 35.1468 49.3692 35.2607 49.2554C35.3677 49.1486 35.466 49.0117 35.5702 48.8668L35.5703 48.8666C35.7783 48.5771 36.0141 48.249 36.3869 48.095C36.7597 47.941 37.1583 48.0071 37.51 48.0654L37.51 48.0654L37.5102 48.0654C37.6863 48.0946 37.8526 48.1221 38.0037 48.1223H38.0056C38.1662 48.1223 38.3382 48.0953 38.5204 48.0667L38.5205 48.0667C38.8859 48.0092 39.2637 47.9499 39.6206 48.0981C39.9775 48.2463 40.202 48.5559 40.4192 48.8552L40.4193 48.8553L40.4194 48.8555C40.5281 49.0053 40.6308 49.1468 40.7446 49.2607C40.8514 49.3677 40.9882 49.466 41.1331 49.5701L41.1334 49.5703L41.1334 49.5703C41.4229 49.7783 41.751 50.0141 41.905 50.3869V50.3869C42.059 50.7597 41.9929 51.1584 41.9346 51.5101ZM35.1109 53.2207C35.2384 53.5221 35.4103 53.7986 35.6231 54.0454L35.9559 53.7127C35.5672 53.2494 35.3331 52.6521 35.3331 52C35.3331 50.5271 36.5271 49.3331 38 49.3331C38.652 49.3331 39.2493 49.5673 39.7127 49.9559L40.0454 49.6232C39.7986 49.4103 39.5221 49.2384 39.2207 49.1109C38.8338 48.9473 38.4231 48.8643 38 48.8643C37.5769 48.8643 37.1662 48.9473 36.7793 49.1109C36.4059 49.2689 36.0706 49.4949 35.7827 49.7827C35.4949 50.0706 35.2689 50.4059 35.1109 50.7793C34.9473 51.1662 34.8643 51.5769 34.8643 52C34.8643 52.4231 34.9473 52.8338 35.1109 53.2207ZM40.2173 54.2173C40.5051 53.9295 40.7311 53.5942 40.8891 53.2207C41.0527 52.8338 41.1357 52.4231 41.1357 52C41.1357 51.5769 41.0527 51.1662 40.889 50.7793C40.7616 50.4779 40.5897 50.2014 40.3768 49.9546L40.0441 50.2874C40.4327 50.7507 40.6669 51.348 40.6669 52C40.6669 53.4729 39.4729 54.6669 38 54.6669C37.3479 54.6669 36.7507 54.4328 36.2873 54.0442L35.9546 54.3769C36.2014 54.5898 36.4779 54.7616 36.7793 54.8891C37.1662 55.0527 37.5769 55.1357 38 55.1357C38.4231 55.1357 38.8338 55.0527 39.2207 54.8891C39.5941 54.7312 39.9294 54.5051 40.2173 54.2173Z" fill="url(#paint7_linear_13858_7)"/>
</g>
<defs>
<linearGradient id="paint0_linear_13858_7" x1="13.8431" y1="5" x2="46" y2="5" gradientUnits="userSpaceOnUse">
<stop stop-color="#E1D8FF"/>
<stop offset="1" stop-color="#F4ECFF"/>
</linearGradient>
<linearGradient id="paint1_linear_13858_7" x1="2.68852" y1="0" x2="27.2213" y2="0" gradientUnits="userSpaceOnUse">
<stop stop-color="#BBA6FF"/>
<stop offset="1" stop-color="#CDBBEF"/>
</linearGradient>
<linearGradient id="paint2_linear_13858_7" x1="2.68852" y1="0" x2="27.2213" y2="0" gradientUnits="userSpaceOnUse">
<stop stop-color="#BBA6FF"/>
<stop offset="1" stop-color="#CDBBEF"/>
</linearGradient>
<linearGradient id="paint3_linear_13858_7" x1="2.68852" y1="0" x2="27.2213" y2="0" gradientUnits="userSpaceOnUse">
<stop stop-color="#BBA6FF"/>
<stop offset="1" stop-color="#CDBBEF"/>
</linearGradient>
<linearGradient id="paint4_linear_13858_7" x1="2.68852" y1="0" x2="27.2213" y2="0" gradientUnits="userSpaceOnUse">
<stop stop-color="#BBA6FF"/>
<stop offset="1" stop-color="#CDBBEF"/>
</linearGradient>
<linearGradient id="paint5_linear_13858_7" x1="22.0955" y1="50.3333" x2="12.4957" y2="50.3333" gradientUnits="userSpaceOnUse">
<stop stop-color="#BBA6FF"/>
<stop offset="1" stop-color="#CDBBEF"/>
</linearGradient>
<linearGradient id="paint6_linear_13858_7" x1="9.84314" y1="1" x2="42" y2="1" gradientUnits="userSpaceOnUse">
<stop stop-color="#E1D8FF"/>
<stop offset="1" stop-color="#F4ECFF"/>
</linearGradient>
<linearGradient id="paint7_linear_13858_7" x1="38" y1="48" x2="38" y2="56" gradientUnits="userSpaceOnUse">
<stop stop-color="#4614E8"/>
<stop offset="1" stop-color="#BCA7FF"/>
</linearGradient>
<clipPath id="clip0_13858_7">
<rect width="8" height="8" fill="white" transform="translate(34 48)"/>
</clipPath>
</defs>
</svg>
