<svg width="40" height="40" viewBox="0 0 40 40" fill="none" xmlns="http://www.w3.org/2000/svg">
<path d="M18.3786 9.21855C18.3786 14.1979 14.3106 18.2371 9.28928 18.2371C4.26797 18.2371 0.2 14.1979 0.2 9.21855C0.2 4.23918 4.26797 0.2 9.28928 0.2C14.3106 0.2 18.3786 4.23918 18.3786 9.21855Z" fill="#F1F5F8" stroke="black" stroke-width="0.4"/>
<path d="M18.3786 30.7815C18.3786 35.7608 14.3106 39.8 9.28928 39.8C4.26797 39.8 0.2 35.7608 0.2 30.7815C0.2 25.8021 4.26797 21.7629 9.28928 21.7629C14.3106 21.7629 18.3786 25.8021 18.3786 30.7815Z" fill="#F1F5F8" stroke="black" stroke-width="0.4"/>
<path d="M39.7999 9.21855C39.7999 14.1979 35.732 18.2371 30.7107 18.2371C25.6894 18.2371 21.6214 14.1979 21.6214 9.21855C21.6214 4.23918 25.6894 0.2 30.7107 0.2C35.732 0.2 39.7999 4.23918 39.7999 9.21855Z" fill="#F1F5F8" stroke="black" stroke-width="0.4"/>
<ellipse cx="30.7107" cy="30.7815" rx="9.28928" ry="9.21855" fill="url(#paint0_linear_0_502)"/>
<defs>
<linearGradient id="paint0_linear_0_502" x1="30.7107" y1="21.563" x2="30.7107" y2="40.0001" gradientUnits="userSpaceOnUse">
<stop stop-color="#4614E8"/>
<stop offset="1" stop-color="#BCA7FF"/>
</linearGradient>
</defs>
</svg>
